#!OML:ASF H:\MichaelJackson\Top Level 1\Subject 1\Session 1\male.ASF
:FULLY-SPECIFIED
:DEGREES
1067
root 0.774845 16.0513 36.452 12.1266 -4.90224 0.8506
lowerback -1.85333 1.16695 -0.959512
upperback -2.98158 1.48758 -4.81891
thorax -1.92402 0.707983 -4.43086
lowerneck -5.91616 -0.400561 4.24468
upperneck -3.06255 -0.742581 5.30217
head 0.0365727 -0.384934 0.910811
rclavicle -5.86415e-015 5.40694e-014
rhumerus 6.61357 -24.3439 -4.36279
rradius 31.4926
rwrist -13.4642
rhand -37.6573 -53.2814
rfingers 7.12502
rthumb -10.7087 -442.988
lclavicle -5.86415e-015 5.40694e-014
lhumerus -57.1736 -43.3018 117.938
lradius 52.1737
lwrist 20.0312
lhand 39.6152 26.3955
lfingers 7.12502
lthumb 62.0754 37.7951
rfemur -27.4008 -4.30203 -8.06465
rtibia 36.9717
rfoot -0.965899 0.790903
rtoes -45.1586
lfemur -1.91446 -23.5698 3.98883
ltibia 11.195
lfoot -19.1508 3.39214
ltoes -25.0157
1068
root 0.76775 16.0634 36.4372 12.2018 -5.12213 0.812659
lowerback -1.63654 1.25125 -0.987487
upperback -2.91508 1.59594 -4.77023
thorax -1.9715 0.763635 -4.36784
lowerneck -5.92397 -0.461276 4.24962
upperneck -3.25301 -0.812431 5.3838
head -0.0197359 -0.425954 0.934335
rclavicle -1.07344e-014 4.45278e-014
rhumerus 6.40655 -24.6861 -4.55941
rradius 31.4307
rwrist -13.1712
rhand -37.6239 -53.2732
rfingers 7.12502
rthumb -10.6765 -442.982
lclavicle -1.07344e-014 4.45278e-014
lhumerus -57.0673 -43.2921 117.967
lradius 52.2007
lwrist 19.8526
lhand 39.5234 26.1664
lfingers 7.12502
lthumb 61.9989 37.6616
rfemur -27.551 -4.09582 -8.00851
rtibia 36.7799
rfoot -0.845366 0.769248
rtoes -45.1164
lfemur -1.8991 -23.5683 4.01585
ltibia 11.0963
lfoot -18.8457 3.51118
ltoes -25.177
1069
root 0.761005 16.0746 36.4237 12.3065 -5.30194 0.807587
lowerback -1.46903 1.33283 -1.05368
upperback -2.85801 1.70204 -4.72405
thorax -2.00254 0.818915 -4.2853
lowerneck -5.9236 -0.518077 4.23458
upperneck -3.43966 -0.875588 5.43617
head -0.0762191 -0.463602 0.952345
rclavicle 2.5842e-015 3.18055e-015
rhumerus 6.13636 -25 -4.69217
rradius 31.3935
rwrist -12.9019
rhand -37.5671 -53.2271
rfingers 7.12502
rthumb -10.6217 -442.939
lclavicle 2.5842e-015 3.18055e-015
lhumerus -56.9237 -43.2224 117.962
lradius 52.2035
lwrist 19.9262
lhand 39.3489 26.191
lfingers 7.12502
lthumb 61.8533 37.8664
rfemur -27.6968 -3.96414 -7.96877
rtibia 36.5824
rfoot -0.739365 0.692296
rtoes -45.0635
lfemur -1.94338 -23.6052 4.025
ltibia 11.0188
lfoot -18.5608 3.68984
ltoes -25.3435
1070
root 0.755176 16.0846 36.4111 12.4379 -5.4468 0.821066
lowerback -1.34764 1.40768 -1.12381
upperback -2.81258 1.80017 -4.68162
thorax -2.02067 0.870223 -4.20384
lowerneck -5.91858 -0.561928 4.20713
upperneck -3.5989 -0.922339 5.454
head -0.125244 -0.492172 0.962026
rclavicle 2.32578e-014 -2.54444e-014
rhumerus 5.82974 -25.238 -4.7664
rradius 31.3667
rwrist -12.7368
rhand -37.4559 -53.1191
rfingers 7.12502
rthumb -10.5145 -442.836
lclavicle 2.32578e-014 -2.54444e-014
lhumerus -56.7622 -43.1119 117.931
lradius 52.1983
lwrist 20.2157
lhand 39.1072 26.447
lfingers 7.12502
lthumb 61.6511 38.3686
rfemur -27.8443 -3.90443 -7.93401
rtibia 36.3865
rfoot -0.643893 0.585088
rtoes -45.0098
lfemur -2.0316 -23.6797 4.02194
ltibia 10.9558
lfoot -18.2938 3.94603
ltoes -25.5067
